Coordinates
version=1
nRows=8
nColumns=63
inDegrees=yes

Units are S.I. units (second, meters, Newtons, ...)
If the header above contains a line with 'inDegrees', this indicates whether rotational values are in degrees (yes) or radians (no).

endheader
time	pelvis_tilt	pelvis_list	pelvis_rotation	pelvis_tx	pelvis_ty	pelvis_tz	hip_flexion_r	hip_adduction_r	hip_rotation_r	knee_angle_r	knee_angle_r_beta	ankle_angle_r	subtalar_angle_r	mtp_angle_r	hip_flexion_l	hip_adduction_l	hip_rotation_l	knee_angle_l	knee_angle_l_beta	ankle_angle_l	subtalar_angle_l	mtp_angle_l	L5_S1_Flex_Ext	L5_S1_Lat_Bending	L5_S1_axial_rotation	L4_L5_Flex_Ext	L4_L5_Lat_Bending	L4_L5_axial_rotation	L3_L4_Flex_Ext	L3_L4_Lat_Bending	L3_L4_axial_rotation	L2_L3_Flex_Ext	L2_L3_Lat_Bending	L2_L3_axial_rotation	L1_L2_Flex_Ext	L1_L2_Lat_Bending	L1_L2_axial_rotation	L1_T12_Flex_Ext	L1_T12_Lat_Bending	L1_T12_axial_rotation	Abs_r3	Abs_r2	Abs_r1	Abs_t1	Abs_t2	neck_flexion	neck_bending	neck_rotation	arm_flex_r	arm_add_r	arm_rot_r	elbow_flex_r	pro_sup_r	wrist_flex_r	wrist_dev_r	arm_flex_l	arm_add_l	arm_rot_l	elbow_flex_l	pro_sup_l	wrist_flex_l	wrist_dev_l
      2.47457627	     -1.35581349	      0.16891495	     86.27089921	      0.24323728	      0.93992071	      0.66822204	      5.35037478	     -4.22397735	    -11.64213202	     16.65111306	      0.29061675	     38.46019297	     13.69172530	      0.00000000	      5.23937754	      3.93414513	      8.40018163	     14.54498619	      0.25385790	     33.48300529	    -12.34441040	      0.00000000	     -0.02006629	     -0.10934093	      0.67646481	     -0.03726510	     -0.14542344	      0.71874386	     -0.03296690	     -0.26585154	      0.71874386	     -0.02293376	     -0.26585154	      0.59190671	     -0.01863355	     -0.22296802	      0.54962766	     -0.01146588	     -0.16936910	      0.50734861	     -0.14333148	     -1.23688647	      3.76229434	      0.00000000	      0.00000000	     25.52897975	     -1.60835395	     17.06866302	      5.43794031	    -14.51540539	    120.41811365	     11.50254662	      7.24691692	     -4.26191104	    -14.78898774	      6.82052101	    -16.05210379	     60.30999361	     25.50354335	     70.24849331	     -5.93534285	      1.93940046
      2.49152542	     -1.33122241	      0.23011299	     86.05172718	      0.24317761	      0.93994519	      0.66837363	      5.46455360	     -4.21429999	    -11.32002270	     16.96837828	      0.29615407	     38.61798298	     13.37874782	      0.00000000	      5.17279235	      3.95355499	      8.58364841	     14.55176773	      0.25397626	     33.36207085	    -12.81206978	      0.00000000	     -0.02501535	     -0.10068547	      0.64365596	     -0.04645601	     -0.13391168	      0.68388446	     -0.04109772	     -0.24480666	      0.68388446	     -0.02859004	     -0.24480666	      0.56319896	     -0.02322925	     -0.20531781	      0.52297047	     -0.01429377	     -0.15596180	      0.48274197	     -0.17868215	     -1.13897420	      3.57982135	      0.00000000	      0.00000000	     25.43862514	     -1.48744529	     17.44085037	      5.60417099	    -14.82052288	    118.19492716	     12.06126217	      9.49002850	     -4.68154008	    -14.60636703	      6.68001267	    -16.07591104	     60.25188409	     25.56158903	     69.89218660	     -5.96581688	      1.76313764
      2.50847458	     -1.33875007	      0.24806125	     86.33012257	      0.24266317	      0.93997641	      0.66854780	      5.48538678	     -4.27917061	    -11.62494383	     17.18487918	      0.29993272	     38.76609128	     13.22304561	      0.00000000	      5.19775430	      4.01356275	      9.06090065	     14.62267261	      0.25521378	     33.32297190	    -12.94602486	      0.00000000	     -0.02833887	     -0.09942927	      0.55700422	     -0.05262811	     -0.13224093	      0.59181699	     -0.04655793	     -0.24175233	      0.59181699	     -0.03238849	     -0.24175233	      0.48737870	     -0.02631547	     -0.20275617	      0.45256593	     -0.01619283	     -0.15401594	      0.41775317	     -0.20242171	     -1.12476380	      3.09789039	      0.00000000	      0.00000000	     25.40578994	     -1.42415364	     17.57494650	      5.77235858	    -14.79089544	    118.97673293	     12.01264072	      8.83131587	     -4.46841403	    -14.55705688	      6.63872653	    -16.17311527	     60.33957073	     25.66621907	     69.66528488	     -5.74054494	      1.51910528
      2.52542373	     -1.41007489	      0.27717342	     86.17588527	      0.24276616	      0.94005075	      0.66866096	      5.54857896	     -4.33401993	    -11.28072727	     17.35359302	      0.30287734	     38.81019968	     12.85283416	      0.00000000	      5.15704908	      4.08741856	      8.98056967	     14.60058544	      0.25482829	     33.25361232	    -12.99881233	      0.00000000	     -0.03237306	     -0.10488220	      0.57021324	     -0.06012001	     -0.13949333	      0.60585157	     -0.05318570	     -0.25501059	      0.60585157	     -0.03699917	     -0.25501059	      0.49893658	     -0.03006163	     -0.21387579	      0.46329826	     -0.01849797	     -0.16246253	      0.42765993	     -0.23123754	     -1.18644847	      3.17135497	      0.00000000	      0.00000000	     25.37628386	     -1.41364122	     17.69710701	      5.82250679	    -14.82856504	    118.64439595	     12.11592003	      9.11099065	     -4.55507881	    -14.48601611	      6.61686879	    -16.26626388	     60.39416778	     25.81288649	     69.70957024	     -5.56581174	      1.37244073
      2.54237288	     -1.51330631	      0.26618060	     85.99423881	      0.24305391	      0.94011627	      0.66867888	      5.62222241	     -4.41828257	    -11.01964844	     17.43058861	      0.30422116	     38.78698495	     12.68935211	      0.00000000	      5.18739120	      4.10553375	      8.18343072	     14.61777636	      0.25512833	     33.42062900	    -12.16412541	      0.00000000	     -0.02922611	     -0.11640793	      0.58752209	     -0.05427582	     -0.15482255	      0.62424222	     -0.04801558	     -0.28303424	      0.62424222	     -0.03340253	     -0.28303424	      0.51408183	     -0.02713937	     -0.23737905	      0.47736170	     -0.01669980	     -0.18031588	      0.44064157	     -0.20875921	     -1.31682979	      3.26762162	      0.00000000	      0.00000000	     25.36743523	     -1.34535570	     17.83045019	      5.94766039	    -14.52077927	    121.73884773	     11.59021853	      6.81294583	     -4.22291017	    -14.62273698	      6.16677896	    -16.28132845	     58.11975330	     26.09711866	     72.24578145	     -5.05119747	      1.67335444
      2.55932203	     -1.62125961	      0.28871798	     85.71927392	      0.24346436	      0.94025806	      0.66869717	      5.68034270	     -4.45025898	    -10.35911081	     17.44280976	      0.30443446	     38.62810911	     12.25178070	      0.00000000	      5.11370846	      4.18709195	      7.94149898	     14.51436957	      0.25332354	     33.32803497	    -12.21205914	      0.00000000	     -0.03250207	     -0.12727962	      0.66465979	     -0.06035960	     -0.16928189	      0.70620103	     -0.05339766	     -0.30946766	      0.70620103	     -0.03714662	     -0.30946766	      0.58157732	     -0.03018142	     -0.25954860	      0.54003608	     -0.01857168	     -0.19715613	      0.49849484	     -0.23215906	     -1.43981249	      3.69663835	      0.00000000	      0.00000000	     25.35755291	     -1.44213797	     17.83186929	      5.86190883	    -14.46409185	    121.82984693	     11.47517220	      6.63820569	     -4.20420746	    -14.56545767	      6.31144954	    -16.34569260	     58.72322898	     26.13832854	     71.89029569	     -5.02338144	      1.61307137
      2.57627119	     -1.66554254	      0.25367645	     86.04438461	      0.24299978	      0.94035195	      0.66857956	      5.59688451	     -4.57118733	    -11.10668525	     17.27305018	      0.30147160	     38.58811863	     12.94186553	      0.00000000	      5.06022036	      4.32127130	      8.69593693	     14.32199630	      0.24996599	     33.17267940	    -12.85086507	      0.00000000	     -0.02739301	     -0.13066305	      0.65868042	     -0.05087156	     -0.17378185	      0.69984795	     -0.04500398	     -0.31769413	      0.69984795	     -0.03130747	     -0.31769413	      0.57634537	     -0.02543715	     -0.26644809	      0.53517784	     -0.01565237	     -0.20239706	      0.49401032	     -0.19566555	     -1.47808653	      3.66338291	      0.00000000	      0.00000000	     25.37455783	     -1.58765972	     17.63686683	      5.66229387	    -14.53879954	    120.61013450	     11.57376400	      7.30618280	     -4.31405576	    -14.59625821	      6.79333144	    -16.32987645	     61.00439000	     25.84407777	     69.92033310	     -5.29677454	      1.19710885
      2.59322034	     -1.78414026	      0.19283024	     86.03670473	      0.24321962	      0.94036691	      0.66842298	      5.61836839	     -4.66514267	    -11.14887649	     17.11578602	      0.29872682	     38.54910274	     13.15323183	      0.00000000	      5.05300905	      4.42833316	      8.63851683	     14.16446021	      0.24721647	     33.21983655	    -12.88247132	      0.00000000	     -0.02362143	     -0.14863173	      0.72163178	     -0.04386736	     -0.19768020	      0.76673377	     -0.03880765	     -0.36138318	      0.76673377	     -0.02699693	     -0.36138318	      0.63142781	     -0.02193486	     -0.30308982	      0.58632582	     -0.01349729	     -0.23023055	      0.54122384	     -0.16872551	     -1.68135184	      4.01349949	      0.00000000	      0.00000000	     25.50111213	     -1.61161156	     17.42254825	      5.42562802	    -14.41983439	    120.30808564	     11.41080635	      7.34978372	     -4.34104227	    -14.62022671	      7.00809767	    -16.35833046	     61.50203024	     25.82678340	     69.91414658	     -5.27722821	      1.46680297
